<svg width="30px" height="30px"
viewBox="0 0 512 512"
 xmlns="http://www.w3.org/2000/svg">

 <g>
  <title>Layer 1</title>
  <path id="svg_1" d="m422.19,109.95l-165.98,-100.88c-19.91,-12.1 -44.52,-12.1 -64.43,0l-165.97,100.88c-5.32,3.23 -5.29,11.27 0.06,14.46l198.13,118.14l198.14,-118.14c5.35,-3.19 5.38,-11.22 0.05,-14.46zm13.84,44.63l-196.03,116.88l0,223.82c0,12.88 13.39,20.91 24.05,14.43l152.16,-92.48c19.68,-11.96 31.79,-33.94 31.79,-57.7l0,-197.7c0,-6.41 -6.64,-10.43 -11.97,-7.25zm-436.03,7.25l0,197.7c0,23.77 12.11,45.74 31.79,57.7l152.16,92.47c10.67,6.48 24.05,-1.54 24.05,-14.43l0,-223.81l-196.03,-116.88c-5.33,-3.18 -11.97,0.84 -11.97,7.25z" fill="#fff"/>
  <ellipse ry="39.5" rx="67.5" id="svg_2" cy="109.5" cx="225" fill="#593C2D"/>
  <path id="svg_3" d="m34.49982,251.42714c-11.34399,0 -20.53262,-12.48118 -20.53262,-27.89003c0,-15.40886 9.18863,-27.89003 20.53262,-27.89003c11.34399,0 20.53262,12.48118 20.53262,27.89003c0,15.40886 -9.18863,27.89003 -20.53262,27.89003z" transform="rotate(-26.2157, 34.4998, 223.537)" opacity="undefined" fill="#000000"/>
  <path id="svg_4" d="m156.49982,323.42714c-11.34399,0 -20.53262,-12.48118 -20.53262,-27.89003c0,-15.40886 9.18863,-27.89003 20.53262,-27.89003c11.34399,0 20.53262,12.48118 20.53262,27.89003c0,15.40886 -9.18863,27.89003 -20.53262,27.89003z" transform="rotate(-26.2157, 156.5, 295.537)" opacity="undefined" fill="#000000"/>
  <path id="svg_5" d="m37.49982,401.42714c-11.34399,0 -20.53262,-12.48118 -20.53262,-27.89003c0,-15.40886 9.18863,-27.89003 20.53262,-27.89003c11.34399,0 20.53262,12.48118 20.53262,27.89003c0,15.40886 -9.18863,27.89003 -20.53262,27.89003z" transform="rotate(-26.2157, 37.4998, 373.537)" opacity="undefined" fill="#000000"/>
  <path id="svg_6" d="m148.49982,463.42714c-11.34399,0 -20.53262,-12.48118 -20.53262,-27.89003c0,-15.40886 9.18863,-27.89003 20.53262,-27.89003c11.34399,0 20.53262,12.48118 20.53262,27.89003c0,15.40886 -9.18863,27.89003 -20.53262,27.89003z" transform="rotate(-26.2157, 148.5, 435.537)" opacity="undefined" fill="#000000"/>
  <path id="svg_7" d="m408.49982,255.42714c-11.34399,0 -20.53262,-12.48118 -20.53262,-27.89003c0,-15.40886 9.18863,-27.89003 20.53262,-27.89003c11.34399,0 20.53262,12.48118 20.53262,27.89003c0,15.40886 -9.18863,27.89003 -20.53262,27.89003z" transform="rotate(23.4031, 408.5, 227.537)" opacity="undefined" fill="#000000"/>
  <path id="svg_8" d="m287.49982,475.42714c-11.34399,0 -20.53262,-12.48118 -20.53262,-27.89003c0,-15.40886 9.18863,-27.89003 20.53262,-27.89003c11.34399,0 20.53262,12.48118 20.53262,27.89003c0,15.40886 -9.18863,27.89003 -20.53262,27.89003z" transform="rotate(23.4031, 287.5, 447.537)" opacity="undefined" fill="#000000"/>
 </g>
</svg>